<svg xmlns="http://www.w3.org/2000/svg" xmlns:xlink="http://www.w3.org/1999/xlink" width="236" height="235" viewBox="0 0 236 235" version="1.1"><title>jurgen</title><desc>Created with Sketch.</desc><defs><path id="path-1" d="M231.1 115.8C231.1 179.3 179.5 230.9 115.9 230.9 52.4 230.9 0.8 179.3 0.8 115.8 0.8 52.2 52.4 0.6 115.9 0.6 179.5 0.6 231.1 52.2 231.1 115.8"/><path id="path-3" d="M231.1 115.8C231.1 179.3 179.5 230.9 115.9 230.9 52.4 230.9 0.8 179.3 0.8 115.8 0.8 52.2 52.4 0.6 115.9 0.6 179.5 0.6 231.1 52.2 231.1 115.8"/><path id="path-5" d="M231.1 115.8C231.1 179.3 179.5 230.9 115.9 230.9 52.4 230.9 0.8 179.3 0.8 115.8 0.8 52.2 52.4 0.6 115.9 0.6 179.5 0.6 231.1 52.2 231.1 115.8"/><path id="path-7" d="M231.1 115.8C231.1 179.3 179.5 230.9 115.9 230.9 52.4 230.9 0.8 179.3 0.8 115.8 0.8 52.2 52.4 0.6 115.9 0.6 179.5 0.6 231.1 52.2 231.1 115.8"/><path id="path-9" d="M231.1 115.8C231.1 179.3 179.5 230.9 115.9 230.9 52.4 230.9 0.8 179.3 0.8 115.8 0.8 52.2 52.4 0.6 115.9 0.6 179.5 0.6 231.1 52.2 231.1 115.8"/><path id="path-11" d="M231.1 115.8C231.1 179.3 179.5 230.9 115.9 230.9 52.4 230.9 0.8 179.3 0.8 115.8 0.8 52.2 52.4 0.6 115.9 0.6 179.5 0.6 231.1 52.2 231.1 115.8"/><path id="path-13" d="M231.1 115.8C231.1 179.3 179.5 230.9 115.9 230.9 52.4 230.9 0.8 179.3 0.8 115.8 0.8 52.2 52.4 0.6 115.9 0.6 179.5 0.6 231.1 52.2 231.1 115.8"/><path id="path-15" d="M231.1 115.8C231.1 179.3 179.5 230.9 115.9 230.9 52.4 230.9 0.8 179.3 0.8 115.8 0.8 52.2 52.4 0.6 115.9 0.6 179.5 0.6 231.1 52.2 231.1 115.8"/><path id="path-17" d="M231.1 115.8C231.1 179.3 179.5 230.9 115.9 230.9 52.4 230.9 0.8 179.3 0.8 115.8 0.8 52.2 52.4 0.6 115.9 0.6 179.5 0.6 231.1 52.2 231.1 115.8"/><path id="path-19" d="M231.1 115.8C231.1 179.3 179.5 230.9 115.9 230.9 52.4 230.9 0.8 179.3 0.8 115.8 0.8 52.2 52.4 0.6 115.9 0.6 179.5 0.6 231.1 52.2 231.1 115.8"/><path id="path-21" d="M231.1 115.8C231.1 179.3 179.5 230.9 115.9 230.9 52.4 230.9 0.8 179.3 0.8 115.8 0.8 52.2 52.4 0.6 115.9 0.6 179.5 0.6 231.1 52.2 231.1 115.8"/><path id="path-23" d="M231.1 115.8C231.1 179.3 179.5 230.9 115.9 230.9 52.4 230.9 0.8 179.3 0.8 115.8 0.8 52.2 52.4 0.6 115.9 0.6 179.5 0.6 231.1 52.2 231.1 115.8"/><path id="path-25" d="M231.1 115.8C231.1 179.3 179.5 230.9 115.9 230.9 52.4 230.9 0.8 179.3 0.8 115.8 0.8 52.2 52.4 0.6 115.9 0.6 179.5 0.6 231.1 52.2 231.1 115.8"/><path id="path-27" d="M231.1 115.8C231.1 179.3 179.5 230.9 115.9 230.9 52.4 230.9 0.8 179.3 0.8 115.8 0.8 52.2 52.4 0.6 115.9 0.6 179.5 0.6 231.1 52.2 231.1 115.8"/></defs><g id="Page-1" stroke="none" stroke-width="1" fill="none" fill-rule="evenodd"><g id="jurgen" transform="translate(2.000000, 2.000000)"><g id="Page-1"><g id="Artboard-1"><g id="Imported-Layers"><g id="Group-15"><g id="mask-2" fill="#FFFFFF"><path d="M231.1 115.8C231.1 179.3 179.5 230.9 115.9 230.9 52.4 230.9 0.8 179.3 0.8 115.8 0.8 52.2 52.4 0.6 115.9 0.6 179.5 0.6 231.1 52.2 231.1 115.8" id="path-1"/></g><g id="Rectangle-1-Clipped"><mask id="mask-2" fill="white"><use xlink:href="#path-1"/></mask><g id="path-1"/><path d="M70 113C70 113 74.4 120.8 89 120.8 103.6 120.8 106 114.1 115.8 114.1 127.3 114.1 128.3 120.8 139.3 120.8 150.3 120.8 159 113 159 113 159 113 157.6 132.2 145.4 147.7 140.2 154.3 127.6 162.3 127.6 162.3L124 157.1C124 157.1 121.9 149.5 118.9 148.5 116 147.4 115.4 148.6 112.8 150.7 112.3 152.6 111.9 154.6 110.4 156.2 107.3 159.3 102 160.9 101.5 160.5 97.1 157 92 152.9 86.8 148.8 72.6 137.4 70 113 70 113L70 113Z" id="Rectangle-1" fill="#F5F5F5" mask="url(#mask-2)"/></g><g id="Fill-1-Clipped"><mask id="mask-4" fill="white"><use xlink:href="#path-3"/></mask><g id="path-1"/><path d="M127.3 162.3C127.3 162.3 128.6 161.7 130.9 160.3 133.1 158.8 136.3 156.6 140 153.1 143.6 149.7 147.6 145 151 138.9 154.4 132.9 157.2 125.3 158.3 116.8 159 112.6 159.1 108.1 159.3 103.4 159.6 98.8 159.8 94 160 89 160.1 86.6 160.2 84.1 160.3 81.5 160.4 79 160.4 76.4 160.5 73.8 160.5 71.2 160.6 68.6 160.4 66 160.4 64.7 160.3 63.3 160.3 62 160.2 60.7 160.2 59.3 160 58 159.5 52.7 158 47.3 155.4 42.7 152.7 38 149.5 33.4 145.4 29.6 137 22.1 125.6 18.2 114.2 17.5 111.3 17.4 108.5 17.3 105.6 17.6 102.8 17.9 100 18.4 97.3 19.3 96.6 19.5 95.9 19.7 95.3 20L93.3 20.8C92.1 21.4 90.8 22.1 89.6 22.8 87.2 24.2 84.8 25.8 82.8 27.7 78.7 31.3 75.7 35.8 73.4 40.6 71.3 45.4 69.7 50.6 68.7 55.8 68.2 58.5 67.9 61.1 67.8 63.8 67.6 65.1 67.7 66.4 67.6 67.7 67.6 69 67.6 70.3 67.5 71.6 67.6 74.2 67.6 76.8 67.7 79.3 67.8 81.8 67.9 84.3 68 86.8 68.4 96.7 68.5 106.1 70 114.5 70.1 115.1 70.2 115.6 70.2 116.1 70.4 116.6 70.5 117.2 70.6 117.7 70.8 118.7 71.1 119.7 71.3 120.7 71.5 121.7 71.8 122.7 72.1 123.6 72.4 124.6 72.6 125.6 73 126.5 73.7 128.3 74.3 130.1 75.2 131.8 75.6 132.6 75.9 133.4 76.3 134.2 76.8 135 77.2 135.8 77.7 136.5 77.9 136.9 78.1 137.3 78.3 137.7 78.5 138 78.8 138.4 79 138.7 79.5 139.4 80 140.1 80.4 140.8 81.4 142.1 82.4 143.3 83.4 144.4 85.4 146.7 87.3 148.7 89.2 150.3 92.9 153.7 96.1 156.1 98.2 157.8 100.3 159.4 101.5 160.3 101.5 160.3 101.7 160.5 101.8 160.8 101.6 161.1 101.4 161.3 101 161.4 100.8 161.2 100.8 161.2 100.8 161.2 100.7 161.2 100.7 161.2 99.6 160.3 97.5 158.6 95.4 156.9 92.3 154.4 88.6 151 85 147.5 80.6 143 77.1 136.9 76.6 136.1 76.2 135.4 75.7 134.6 75.3 133.8 74.9 132.9 74.5 132.1 73.7 130.4 73.1 128.6 72.4 126.7 72 125.8 71.8 124.8 71.5 123.8 71.2 122.9 70.8 121.9 70.6 120.9 70.4 119.9 70.2 118.8 69.9 117.8 69.8 117.3 69.7 116.8 69.6 116.2 69.5 115.7 69.4 115.2 69.3 114.7 67.8 106.1 67.6 96.7 67.1 86.8 66.9 84.4 66.8 81.9 66.7 79.3 66.6 76.8 66.5 74.2 66.5 71.6 66.5 69 66.5 66.4 66.6 63.7 66.7 61 66.8 58.4 66.9 55.6 67.2 50.2 67.9 44.5 70.2 39.1 70.8 37.8 71.3 36.4 72.2 35.2 72.6 34.6 72.9 34 73.4 33.4L74.7 31.6C75.2 31 75.7 30.5 76.2 30 76.8 29.5 77.3 28.9 77.8 28.5 79 27.5 80.1 26.6 81.3 25.8 83.7 24.1 86.3 22.8 88.9 21.5 90.2 20.9 91.5 20.3 92.9 19.8L94.9 19C95.6 18.7 96.3 18.5 97 18.3 102.6 16.7 108.5 16.4 114.2 16.8 120 17.2 125.8 18.2 131.2 20.2 132.5 20.7 133.9 21.2 135.2 21.9 135.8 22.2 136.5 22.5 137.2 22.8L139.1 23.9 140 24.4 142.7 26.1C143.8 27 145 27.8 146.1 28.8 148.4 30.5 150.4 32.6 152.3 34.7 152.8 35.2 153.3 35.8 153.7 36.3 154.1 36.9 154.6 37.5 155 38 155.8 39.2 156.6 40.4 157.3 41.6 158.7 44.1 159.6 46.9 160.1 49.7 160.6 52.5 160.8 55.2 161 57.9 161.2 60.6 161.2 63.3 161.3 66 161.4 68.6 161.3 71.2 161.3 73.8 161.2 76.4 161.2 79 161.1 81.6 161 84.1 160.9 86.6 160.8 89.1 160.6 94 160.3 98.8 160 103.5 159.7 108.1 159.7 112.6 159 116.9 157.9 125.5 155.1 133.2 151.7 139.3 148.3 145.5 144.3 150.3 140.6 153.8 137 157.4 133.7 159.7 131.4 161.2 129.2 162.7 127.8 163.3 127.8 163.3L127.8 163.3C127.5 163.4 127.2 163.3 127 163 126.9 162.7 127 162.4 127.3 162.3 127.3 162.3 127.3 162.3 127.3 162.3" id="Fill-1" stroke="#000000" fill="#1A1918" mask="url(#mask-4)"/></g><g id="Stroke-3-Clipped"><mask id="mask-6" fill="white"><use xlink:href="#path-5"/></mask><g id="path-1"/><path d="M160.6 81.9C162.9 82 164.9 76.6 167 80.2 169.1 83.7 170 102.9 167.3 107.3 164.5 111.8 161 113.3 159.4 110.4M152.2 137.9C152.2 137.9 150.6 162.9 153.7 165.1 155.1 166 164.4 168.2 159.7 175.1 155.1 182 148 186.5 135.6 187.8M157.4 166.4C157.4 166.4 163.5 164.8 170.6 169.7 177.8 174.7 200 181.3 211.2 186 222.3 190.6 243 203.3 247.2 235.8M72.4 229.6C72.4 229.6 80.4 198.8 81 187.5 81.6 176.2 79.1 172.5 97.2 163.1 115.3 153.7 117.3 154.2 120 154.8 125.2 156.1 129.1 167.5 129.1 167.5 129.1 167.5 136.1 176 133.9 183.6 133.9 183.6 137.1 189.7 133.4 197.5 133.4 197.5 140.2 208.6 120.1 217 120.1 217 116.8 234.7 111 242.4" id="Stroke-3" stroke="#1A1918" mask="url(#mask-6)"/></g><g id="Fill-4-Clipped"><mask id="mask-8" fill="white"><use xlink:href="#path-7"/></mask><g id="path-1"/><path d="M72.4 229.6C72.4 229.6 80.4 198.8 81 187.5 81.4 180.4 80.6 176.3 84.4 171.9 81.3 167.5 82.2 162.3 82.2 162.3L73.5 162.3 70.7 168.2C70.7 168.2 59 173.3 38.1 179 17.2 184.7 13.8 183.9 8.2 187.6 2.5 191.3-3 188.5-7 198.8 -11 209.2-12.7 224.2-12.7 224.2 -12.7 224.2-6.4 220.9 2.5 221.8 20 223.7 51.7 228.5 75 230.4L72.4 229.6" id="Fill-4" fill="#1A1918" mask="url(#mask-8)"/></g><g id="Fill-5-Clipped"><mask id="mask-10" fill="white"><use xlink:href="#path-9"/></mask><g id="path-1"/><path d="M211.2 186C200 181.3 177.8 174.7 170.6 169.7 163.5 164.8 157.2 166.4 157.2 166.4 157.2 166.4 161.4 168.7 161.2 171.8 161.1 174.3 153.6 185.5 135.1 188.3 135.3 190.8 135.1 193.9 133.4 197.5 133.4 197.5 140.2 208.6 120.1 217 120.1 217 118.9 223.4 116.7 230.1 128.4 229.2 140.1 227.8 154.1 226.1 177.1 223.2 177.1 224.6 210.1 230.6 242.6 236.4 247.2 235.8 247.2 235.8 243 203.3 222.3 190.6 211.2 186" id="Fill-5" fill="#1A1918" mask="url(#mask-10)"/></g><g id="Stroke-6-Clipped"><mask id="mask-12" fill="white"><use xlink:href="#path-11"/></mask><g id="path-1"/><path d="M96.3 168.4C96.3 168.4 98.3 170.3 105.5 169.8 115.3 169.1 127.2 164.8 129.9 168.8M110.9 156.4C110.9 156.4 112.5 148.1 116.9 148.3 123.3 148.7 123.6 157.3 123.6 157.3M96 126.9C96 126.9 126.7 120.7 136.1 126.7M66.9 81.3C66.9 81.3 65.1 77.2 62.3 77 59.4 76.8 55.5 85.2 58 97.9 59.7 106.6 61.7 114.1 68.7 111.1" id="Stroke-6" stroke="#1A1918" mask="url(#mask-12)"/></g><g id="Fill-7-Clipped"><mask id="mask-14" fill="white"><use xlink:href="#path-13"/></mask><g id="path-1"/><path d="M164.1 77.3L159.8 75.9C159.8 75.9 141.9 72.6 134.2 72.1 126.4 71.7 124.5 76.5 116.6 76.1 108.7 75.6 109 72.1 95.4 71.3 81.7 70.6 73.1 73.8 73.1 73.8 66 74.9 64.4 77.6 64.4 77.6L66.9 80.8C66.9 80.8 69.1 78.5 71.8 79.2 74.5 79.9 74 88.6 77 91.4 80 94.1 88.3 94.5 92.2 94.7 96 94.9 104.7 94.8 107.9 91.6 111.1 88.3 113.2 80 116.8 80.2 120.3 80.4 122.6 91.2 125.1 93.1 127.6 95 135.2 95.9 140.2 96.2 145.3 96.5 152 95.9 154.6 93.6 157.2 91.3 158.8 83.3 160.4 83.2 161.9 83.2 161.8 85 161.8 85 161.8 85 164 84 164.3 83.1 164.7 82.1 164.1 77.3 164.1 77.3L164.1 77.3 164.1 77.3ZM104.1 90.7C101.7 92.5 82.5 93.4 78.8 90 75.2 86.8 76.6 79 76.6 79 76.6 79 76.5 75.4 81.2 74.4 86 73.4 90.1 73.2 94.8 73.5 99.6 73.8 110.9 75.5 110.6 79.8 110.3 85.4 106.6 88.9 104.1 90.7L104.1 90.7 104.1 90.7ZM152.6 92.7C149.8 94.6 146 94.9 139.1 94.5 132.1 94.1 129 94 126.7 91.2 124.4 88.5 122.1 82 124.8 77.6 126.8 74.5 132.7 74.2 138.7 74.8 144.7 75.4 153.2 76.6 154.9 78.7 156.5 80.8 155.4 90.8 152.6 92.7L152.6 92.7 152.6 92.7Z" id="Fill-7" fill="#1A1918" mask="url(#mask-14)"/></g><g id="Fill-8-Clipped"><mask id="mask-16" fill="white"><use xlink:href="#path-15"/></mask><g id="path-1"/><path d="M84.4 79.3C84.4 79.3 84.5 79.3 84.6 79.2 84.8 79.1 85 79 85.2 78.9 85.7 78.6 86.5 78.3 87.3 77.9 88.2 77.5 89.3 77.2 90.4 76.9 91 76.8 91.6 76.6 92.2 76.5 92.8 76.4 93.5 76.4 94.1 76.3L94.6 76.3 94.8 76.3 95.1 76.3C95.4 76.3 95.7 76.2 96 76.3 96.7 76.3 97.3 76.4 97.9 76.6 99.2 76.9 100.2 77.6 101 78.2 101.7 78.8 102.3 79.3 102.7 79.7 103 80 103.2 80.1 103.2 80.1 103.6 80.4 103.7 80.9 103.5 81.3 103.2 81.7 102.7 81.8 102.3 81.5 102.3 81.5 102.3 81.5 102.3 81.5L102.2 81.5C102.2 81.5 101.9 81.3 101.5 80.9 101.1 80.5 100.6 80 99.9 79.5 99.3 79 98.5 78.5 97.5 78.2 97 78.1 96.5 78 96 78 95.7 78 95.4 78 95.1 78L94.9 78 94.7 78 94.3 78.1C93.7 78.1 93.1 78.2 92.5 78.3 92 78.4 91.4 78.6 90.9 78.7 89.9 79 88.9 79.4 88.1 79.7 87.3 80.1 86.7 80.4 86.3 80.7 86.1 80.8 85.9 80.9 85.8 81 85.7 81.1 85.7 81.1 85.7 81.1L85.7 81.1C85.2 81.5 84.5 81.4 84.1 80.9 83.8 80.4 83.9 79.7 84.4 79.4 84.4 79.4 84.4 79.4 84.4 79.3" id="Fill-8" fill="#1A1918" mask="url(#mask-16)"/></g><g id="Fill-9-Clipped"><mask id="mask-18" fill="white"><use xlink:href="#path-17"/></mask><g id="path-1"/><path d="M127.5 80.7C127.5 80.7 127.8 80.5 128.2 80.2 128.4 80 128.7 79.8 129 79.6 129.4 79.4 129.7 79.2 130.2 78.9 130.6 78.7 131 78.5 131.5 78.2 132.1 78 132.6 77.8 133.2 77.6 133.7 77.4 134.4 77.3 135 77.2 135.3 77.1 135.6 77.1 136 77 136.1 77 136.3 77 136.5 77L136.9 77 137.9 77C138.2 77 138.5 77 138.8 77 139.5 77 140.1 77.2 140.7 77.3 141.3 77.6 141.9 77.7 142.4 78 143 78.3 143.4 78.6 143.8 78.9 144.2 79.1 144.5 79.4 144.8 79.7 145.1 79.9 145.4 80.1 145.6 80.3 146 80.7 146.2 80.9 146.2 80.9 146.6 81.2 146.6 81.8 146.3 82.1 146 82.5 145.4 82.5 145 82.2L145 82.2 145 82.2C145 82.2 144.8 82 144.4 81.6 144.2 81.5 144 81.2 143.7 81 143.4 80.8 143.1 80.5 142.8 80.3 142.4 80 142 79.8 141.6 79.6 141.2 79.3 140.7 79.2 140.3 79 139.8 78.9 139.2 78.8 138.7 78.7 138.4 78.7 138.2 78.7 137.9 78.7L137 78.7 136.5 78.7C136.4 78.7 136.2 78.7 136.1 78.7 135.8 78.8 135.6 78.8 135.3 78.8 134.7 79 134.2 79.1 133.7 79.2 133.2 79.4 132.7 79.6 132.2 79.8 131.8 80 131.4 80.2 131 80.4 130.6 80.7 130.3 80.8 130 81 129.7 81.2 129.4 81.4 129.2 81.6 128.8 81.9 128.6 82.1 128.6 82.1 128.2 82.4 127.7 82.3 127.4 81.9 127.1 81.5 127.1 81 127.5 80.7" id="Fill-9" fill="#1A1918" mask="url(#mask-18)"/></g><g id="Fill-10-Clipped"><mask id="mask-20" fill="white"><use xlink:href="#path-19"/></mask><g id="path-1"/><path d="M97.1 79.6C97 81.4 95.6 82.7 93.8 82.6 92.1 82.5 90.8 81 90.9 79.3 91 77.6 92.4 76.2 94.2 76.3 95.9 76.4 97.2 77.9 97.1 79.6" id="Fill-10" fill="#1A1918" mask="url(#mask-20)"/></g><g id="Fill-11-Clipped"><mask id="mask-22" fill="white"><use xlink:href="#path-21"/></mask><g id="path-1"/><path d="M140 80.5C139.9 82.2 138.3 83.5 136.5 83.4 134.7 83.3 133.3 81.8 133.4 80.1 133.5 78.4 135 77.1 136.8 77.2 138.7 77.3 140 78.7 140 80.5" id="Fill-11" fill="#1A1918" mask="url(#mask-22)"/></g><g id="Stroke-12-Clipped"><mask id="mask-24" fill="white"><use xlink:href="#path-23"/></mask><g id="path-1"/><path d="M122.9 106.9C122.9 106.9 124 108.5 125.4 107.9 126.8 107.2 125.7 106.2 123.7 106.1 121.7 106 118.5 109.6 115.7 109.5 112.2 109.3 109.7 105.6 107.4 105.6 105.1 105.6 106.4 106.7 107.3 107.2 108.2 107.6 109.1 107.3 109.1 107.3" id="Stroke-12" stroke="#1A1918" stroke-width="1.8" mask="url(#mask-24)"/></g><g id="Stroke-13-Clipped"><mask id="mask-26" fill="white"><use xlink:href="#path-25"/></mask><g id="path-1"/><path d="M83.6 171.5C83.6 171.5 80.5 165.6 80.6 163.9 80.7 162.2 82.2 162.3 82.2 162.3 82.2 162.3 78.4 148.1 78.3 139.2" id="Stroke-13" stroke="#1A1918" mask="url(#mask-26)"/></g><g id="Stroke-14-Clipped"><mask id="mask-28" fill="white"><use xlink:href="#path-27"/></mask><g id="path-1"/><path d="M125.7 73.8C125.7 73.8 134.3 66.7 150.9 70.5M107.2 73.7C107.2 73.7 99.2 66.7 81.8 70.4" id="Stroke-14" stroke="#1A1918" stroke-width="4.5" mask="url(#mask-28)"/></g></g><path d="M231.1 115.8C231.1 179.3 179.5 230.9 115.9 230.9 52.4 230.9 0.8 179.3 0.8 115.8 0.8 52.2 52.4 0.6 115.9 0.6 179.5 0.6 231.1 52.2 231.1 115.8L231.1 115.8 231.1 115.8Z" id="Stroke-10027" stroke="#1A1918" stroke-width="4"/></g></g></g></g></g></svg>