<?xml version="1.0" encoding="UTF-8" standalone="no"?>
<svg width="256px" height="256px" viewBox="0 0 256 256" version="1.1" xmlns="http://www.w3.org/2000/svg" xmlns:xlink="http://www.w3.org/1999/xlink" xmlns:sketch="http://www.bohemiancoding.com/sketch/ns">
    <!-- Generator: Sketch 3.4.3 (16044) - http://www.bohemiancoding.com/sketch -->
    <title>jurgen-santa</title>
    <desc>Created with Sketch.</desc>
    <defs>
        <path id="path-1" d="M231.085,115.757 C231.085,179.347 179.535,230.897 115.945,230.897 C52.355,230.897 0.805,179.347 0.805,115.757 C0.805,52.166 52.355,0.616 115.945,0.616 C179.535,0.616 231.085,52.166 231.085,115.757"></path>
        <path id="path-3" d="M231.085,115.757 C231.085,179.347 179.535,230.897 115.945,230.897 C52.355,230.897 0.805,179.347 0.805,115.757 C0.805,52.166 52.355,0.616 115.945,0.616 C179.535,0.616 231.085,52.166 231.085,115.757"></path>
        <path id="path-5" d="M231.085,115.757 C231.085,179.347 179.535,230.897 115.945,230.897 C52.355,230.897 0.805,179.347 0.805,115.757 C0.805,52.166 52.355,0.616 115.945,0.616 C179.535,0.616 231.085,52.166 231.085,115.757"></path>
        <path id="path-7" d="M231.085,115.757 C231.085,179.347 179.535,230.897 115.945,230.897 C52.355,230.897 0.805,179.347 0.805,115.757 C0.805,52.166 52.355,0.616 115.945,0.616 C179.535,0.616 231.085,52.166 231.085,115.757"></path>
        <path id="path-9" d="M231.085,115.757 C231.085,179.347 179.535,230.897 115.945,230.897 C52.355,230.897 0.805,179.347 0.805,115.757 C0.805,52.166 52.355,0.616 115.945,0.616 C179.535,0.616 231.085,52.166 231.085,115.757"></path>
        <path id="path-11" d="M231.085,115.757 C231.085,179.347 179.535,230.897 115.945,230.897 C52.355,230.897 0.805,179.347 0.805,115.757 C0.805,52.166 52.355,0.616 115.945,0.616 C179.535,0.616 231.085,52.166 231.085,115.757"></path>
        <path id="path-13" d="M231.085,115.757 C231.085,179.347 179.535,230.897 115.945,230.897 C52.355,230.897 0.805,179.347 0.805,115.757 C0.805,52.166 52.355,0.616 115.945,0.616 C179.535,0.616 231.085,52.166 231.085,115.757"></path>
        <path id="path-15" d="M231.085,115.757 C231.085,179.347 179.535,230.897 115.945,230.897 C52.355,230.897 0.805,179.347 0.805,115.757 C0.805,52.166 52.355,0.616 115.945,0.616 C179.535,0.616 231.085,52.166 231.085,115.757"></path>
        <path id="path-17" d="M231.085,115.757 C231.085,179.347 179.535,230.897 115.945,230.897 C52.355,230.897 0.805,179.347 0.805,115.757 C0.805,52.166 52.355,0.616 115.945,0.616 C179.535,0.616 231.085,52.166 231.085,115.757"></path>
        <path id="path-19" d="M231.085,115.757 C231.085,179.347 179.535,230.897 115.945,230.897 C52.355,230.897 0.805,179.347 0.805,115.757 C0.805,52.166 52.355,0.616 115.945,0.616 C179.535,0.616 231.085,52.166 231.085,115.757"></path>
        <path id="path-21" d="M231.085,115.757 C231.085,179.347 179.535,230.897 115.945,230.897 C52.355,230.897 0.805,179.347 0.805,115.757 C0.805,52.166 52.355,0.616 115.945,0.616 C179.535,0.616 231.085,52.166 231.085,115.757"></path>
        <path id="path-23" d="M231.085,115.757 C231.085,179.347 179.535,230.897 115.945,230.897 C52.355,230.897 0.805,179.347 0.805,115.757 C0.805,52.166 52.355,0.616 115.945,0.616 C179.535,0.616 231.085,52.166 231.085,115.757"></path>
        <path id="path-25" d="M231.085,115.757 C231.085,179.347 179.535,230.897 115.945,230.897 C52.355,230.897 0.805,179.347 0.805,115.757 C0.805,52.166 52.355,0.616 115.945,0.616 C179.535,0.616 231.085,52.166 231.085,115.757"></path>
        <path id="path-27" d="M231.085,115.757 C231.085,179.347 179.535,230.897 115.945,230.897 C52.355,230.897 0.805,179.347 0.805,115.757 C0.805,52.166 52.355,0.616 115.945,0.616 C179.535,0.616 231.085,52.166 231.085,115.757"></path>
    </defs>
    <g id="Page-1" stroke="none" stroke-width="1" fill="none" fill-rule="evenodd" sketch:type="MSPage">
        <g id="jurgen-santa" sketch:type="MSArtboardGroup">
            <g sketch:type="MSLayerGroup" transform="translate(12.000000, 13.000000)" id="Artboard-1">
                <g>
                    <g id="Page-1">
                        <g id="Artboard-1">
                            <g id="Imported-Layers">
                                <g id="Group-15">
                                    <g id="mask-2" fill="#FFFFFF" sketch:type="MSShapeGroup">
                                        <path d="M231.085,115.757 C231.085,179.347 179.535,230.897 115.945,230.897 C52.355,230.897 0.805,179.347 0.805,115.757 C0.805,52.166 52.355,0.616 115.945,0.616 C179.535,0.616 231.085,52.166 231.085,115.757" id="path-1"></path>
                                    </g>
                                    <g id="Rectangle-1-Clipped">
                                        <mask id="mask-2" sketch:name="path-1" fill="white">
                                            <use xlink:href="#path-1"></use>
                                        </mask>
                                        <g id="path-1"></g>
                                        <path d="M70,113 C70,113 74.3896484,120.765137 88.9765625,120.765137 C103.563477,120.765137 106.027197,114.123865 115.847168,114.123865 C127.293457,114.123865 128.328125,120.765137 139.29541,120.765137 C150.262695,120.765137 159,113 159,113 C159,113 157.574219,132.211426 145.422852,147.666504 C140.177645,154.337776 127.595459,162.25708 127.595459,162.25708 L124.00708,157.062988 C124.00708,157.062988 121.890869,149.520508 118.945557,148.483887 C116.000244,147.447266 115.404908,148.620521 112.788574,150.709229 C112.339061,152.557556 111.922133,154.644923 110.375732,156.204834 C107.333845,159.2733 102.03181,160.88105 101.520244,160.473966 C97.1427623,156.990547 92.0399365,152.921131 86.8349609,148.751465 C72.621582,137.365234 70,113 70,113 L70,113 Z" id="Rectangle-1" fill="#F5F5F5" sketch:type="MSShapeGroup" mask="url(#mask-2)"></path>
                                    </g>
                                    <g id="Fill-1-Clipped">
                                        <mask id="mask-4" sketch:name="path-1" fill="white">
                                            <use xlink:href="#path-3"></use>
                                        </mask>
                                        <g id="path-1"></g>
                                        <path d="M127.319,162.261 C127.319,162.261 128.594,161.685 130.861,160.264 C133.113,158.838 136.344,156.571 139.97,153.126 C143.576,149.682 147.614,145.042 151.01,138.941 C154.419,132.867 157.152,125.348 158.341,116.829 C158.969,112.582 159.075,108.082 159.335,103.431 C159.572,98.782 159.838,93.976 160.02,89.036 C160.121,86.565 160.224,84.061 160.328,81.527 C160.419,78.992 160.418,76.426 160.469,73.833 C160.505,71.239 160.588,68.616 160.432,65.977 C160.383,64.657 160.334,63.331 160.284,61.998 C160.226,60.66 160.223,59.335 160.043,57.992 C159.463,52.654 157.953,47.336 155.359,42.736 C152.715,37.993 149.512,33.42 145.362,29.636 C136.96,22.115 125.596,18.186 114.185,17.542 C111.325,17.382 108.457,17.347 105.62,17.631 C102.784,17.925 99.978,18.449 97.278,19.287 C96.611,19.519 95.933,19.719 95.278,19.976 L93.346,20.781 C92.082,21.446 90.781,22.063 89.552,22.766 C87.156,24.212 84.831,25.802 82.81,27.679 C78.664,31.343 75.65,35.785 73.405,40.557 C71.266,45.386 69.708,50.573 68.737,55.842 C68.234,58.474 67.939,61.127 67.757,63.761 C67.615,65.078 67.655,66.369 67.611,67.694 C67.586,69.006 67.56,70.311 67.535,71.61 C67.588,74.197 67.641,76.756 67.693,79.284 C67.789,81.82 67.884,84.324 67.978,86.795 C68.381,96.681 68.477,106.056 69.991,114.536 C70.076,115.067 70.162,115.596 70.247,116.121 C70.363,116.64 70.478,117.156 70.592,117.67 C70.824,118.696 71.053,119.711 71.279,120.715 C71.497,121.721 71.842,122.68 72.111,123.646 C72.417,124.602 72.639,125.573 73.002,126.482 C73.717,128.302 74.307,130.122 75.158,131.771 C75.56,132.604 75.925,133.442 76.341,134.239 C76.786,135.019 77.226,135.788 77.658,136.544 C77.875,136.921 78.091,137.295 78.305,137.667 C78.546,138.021 78.785,138.373 79.022,138.721 C79.495,139.419 79.961,140.105 80.418,140.778 C81.42,142.06 82.376,143.308 83.374,144.438 C85.376,146.696 87.348,148.65 89.204,150.335 C92.909,153.715 96.054,156.118 98.17,157.783 C100.309,159.423 101.45,160.298 101.45,160.298 C101.701,160.489 101.751,160.847 101.56,161.098 C101.37,161.349 101.012,161.399 100.761,161.208 C100.758,161.206 100.75,161.2 100.748,161.198 C100.748,161.198 99.625,160.295 97.52,158.603 C95.446,156.869 92.309,154.435 88.616,150.971 C84.956,147.506 80.612,143.026 77.053,136.902 C76.616,136.135 76.172,135.355 75.722,134.564 C75.302,133.756 74.933,132.907 74.527,132.062 C73.669,130.39 73.074,128.55 72.355,126.707 C71.989,125.787 71.766,124.807 71.459,123.841 C71.188,122.865 70.842,121.894 70.624,120.88 C70.397,119.868 70.168,118.844 69.936,117.809 C69.822,117.291 69.707,116.77 69.591,116.246 C69.506,115.717 69.421,115.185 69.335,114.651 C67.807,106.1 67.553,96.702 67.067,86.835 C66.947,84.363 66.825,81.857 66.702,79.321 C66.624,76.774 66.544,74.197 66.463,71.591 C66.503,68.985 66.476,66.388 66.571,63.698 C66.667,61.038 66.787,58.352 66.921,55.625 C67.247,50.201 67.877,44.51 70.152,39.121 C70.79,37.811 71.339,36.449 72.178,35.229 C72.577,34.611 72.928,33.96 73.371,33.37 L74.748,31.632 C75.182,31.033 75.731,30.53 76.247,30.003 C76.782,29.493 77.258,28.925 77.84,28.47 C78.98,27.534 80.097,26.579 81.336,25.796 C83.722,24.1 86.34,22.817 88.937,21.518 C90.238,20.904 91.544,20.343 92.85,19.752 L94.901,18.955 C95.585,18.707 96.289,18.518 96.982,18.298 C102.584,16.724 108.483,16.425 114.232,16.812 C119.998,17.212 125.761,18.212 131.193,20.216 C132.544,20.73 133.906,21.217 135.197,21.867 C135.848,22.179 136.511,22.464 137.152,22.798 L139.05,23.856 L139.996,24.387 L142.677,26.141 C143.845,27.033 145.025,27.817 146.113,28.764 C148.361,30.549 150.427,32.554 152.321,34.699 C152.781,35.246 153.261,35.779 153.705,36.338 C154.141,36.904 154.576,37.471 154.996,38.048 C155.814,39.223 156.615,40.448 157.275,41.647 C158.738,44.143 159.633,46.944 160.094,49.696 C160.593,52.45 160.754,55.217 160.969,57.909 C161.172,60.613 161.178,63.298 161.291,65.955 C161.435,68.614 161.341,71.242 161.293,73.842 C161.231,76.442 161.221,79.016 161.119,81.554 C161.003,84.091 160.889,86.597 160.777,89.07 C160.573,94.017 160.286,98.82 160.029,103.468 C159.734,108.106 159.65,112.62 159.031,116.926 C157.858,125.533 155.118,133.154 151.685,139.316 C148.252,145.495 144.265,150.279 140.63,153.811 C136.989,157.354 133.731,159.7 131.448,161.185 C129.158,162.66 127.809,163.292 127.809,163.292 L127.796,163.298 C127.51,163.432 127.17,163.309 127.037,163.023 C126.903,162.738 127.026,162.398 127.312,162.264 C127.313,162.264 127.317,162.262 127.319,162.261" id="Fill-1" stroke="#000000" fill="#1A1918" sketch:type="MSShapeGroup" mask="url(#mask-4)"></path>
                                    </g>
                                    <g id="Stroke-3-Clipped">
                                        <mask id="mask-6" sketch:name="path-1" fill="white">
                                            <use xlink:href="#path-5"></use>
                                        </mask>
                                        <g id="path-1"></g>
                                        <path d="M160.646,81.892 C162.927,81.99 164.871,76.648 167.004,80.167 C169.137,83.686 170.026,102.859 167.264,107.31 C164.502,111.76 161.008,113.324 159.42,110.399 M152.186,137.899 C152.186,137.899 150.559,162.927 153.728,165.074 C155.106,166.007 164.414,168.234 159.748,175.121 C155.082,182.009 147.978,186.476 135.617,187.796 M157.369,166.417 C157.369,166.417 163.462,164.752 170.619,169.719 C177.776,174.685 199.985,181.337 211.162,185.953 C222.339,190.569 242.979,203.26 247.19,235.784 M72.43,229.557 C72.43,229.557 80.371,198.764 80.991,187.495 C81.611,176.227 79.138,172.522 97.205,163.106 C115.272,153.69 117.302,154.215 119.968,154.841 C125.218,156.075 129.084,167.538 129.084,167.538 C129.084,167.538 136.057,175.952 133.853,183.564 C133.853,183.564 137.085,189.69 133.383,197.517 C133.383,197.517 140.208,208.601 120.115,217.013 C120.115,217.013 116.763,234.674 110.985,242.387" id="Stroke-3" stroke="#1A1918" sketch:type="MSShapeGroup" mask="url(#mask-6)"></path>
                                    </g>
                                    <g id="Fill-4-Clipped">
                                        <mask id="mask-8" sketch:name="path-1" fill="white">
                                            <use xlink:href="#path-7"></use>
                                        </mask>
                                        <g id="path-1"></g>
                                        <path d="M72.43,229.557 C72.43,229.557 80.371,198.763 80.991,187.495 C81.38,180.422 80.557,176.329 84.353,171.932 C81.3,167.487 82.154,162.277 82.154,162.277 L73.505,162.338 L70.682,168.219 C70.682,168.219 58.972,173.289 38.083,178.998 C17.193,184.707 13.805,183.949 8.173,187.64 C2.54,191.33 -3.017,188.453 -7.016,198.806 C-11.015,209.16 -12.701,224.212 -12.701,224.212 C-12.701,224.212 -6.438,220.877 2.5,221.818 C20.003,223.662 51.714,228.49 75.01,230.415 L72.43,229.557" id="Fill-4" fill="#1A1918" sketch:type="MSShapeGroup" mask="url(#mask-8)"></path>
                                    </g>
                                    <g id="Fill-5-Clipped">
                                        <mask id="mask-10" sketch:name="path-1" fill="white">
                                            <use xlink:href="#path-9"></use>
                                        </mask>
                                        <g id="path-1"></g>
                                        <path d="M211.162,185.953 C199.985,181.337 177.775,174.685 170.619,169.719 C163.462,164.752 157.216,166.43 157.216,166.43 C157.216,166.43 161.38,168.665 161.209,171.763 C161.068,174.331 153.648,185.464 135.059,188.322 C135.292,190.765 135.073,193.944 133.383,197.517 C133.383,197.517 140.208,208.6 120.115,217.012 C120.115,217.012 118.898,223.387 116.68,230.147 C128.412,229.231 140.121,227.805 154.086,226.072 C177.077,223.219 177.094,224.611 210.134,230.55 C242.624,236.39 247.19,235.784 247.19,235.784 C242.979,203.26 222.339,190.569 211.162,185.953" id="Fill-5" fill="#1A1918" sketch:type="MSShapeGroup" mask="url(#mask-10)"></path>
                                    </g>
                                    <g id="Stroke-6-Clipped">
                                        <mask id="mask-12" sketch:name="path-1" fill="white">
                                            <use xlink:href="#path-11"></use>
                                        </mask>
                                        <g id="path-1"></g>
                                        <path d="M96.318,168.411 C96.318,168.411 98.287,170.31 105.462,169.807 C115.279,169.118 127.155,164.754 129.908,168.773 M110.91,156.43 C110.91,156.43 112.512,148.088 116.928,148.331 C123.339,148.684 123.58,157.271 123.58,157.271 M96.006,126.938 C96.006,126.938 126.735,120.723 136.124,126.669 M66.896,81.251 C66.896,81.251 65.121,77.152 62.272,76.995 C59.423,76.839 55.533,85.198 57.977,97.906 C59.651,106.606 61.658,114.112 68.684,111.069" id="Stroke-6" stroke="#1A1918" sketch:type="MSShapeGroup" mask="url(#mask-12)"></path>
                                    </g>
                                    <g id="Fill-7-Clipped">
                                        <mask id="mask-14" sketch:name="path-1" fill="white">
                                            <use xlink:href="#path-13"></use>
                                        </mask>
                                        <g id="path-1"></g>
                                        <path d="M164.1,77.34 L159.805,75.873 C159.805,75.873 141.934,72.568 134.162,72.141 C126.391,71.713 124.487,76.486 116.578,76.051 C108.67,75.616 109.002,72.078 95.367,71.328 C81.732,70.577 73.076,73.794 73.076,73.794 C66.039,74.911 64.39,77.555 64.39,77.555 L66.944,80.841 C66.944,80.841 69.124,78.5 71.821,79.195 C74.518,79.891 74.038,88.617 77.031,91.38 C80.025,94.143 88.349,94.465 92.167,94.675 C95.985,94.885 104.741,94.82 107.929,91.576 C111.116,88.333 113.217,79.969 116.762,80.164 C120.307,80.359 122.585,91.152 125.078,93.067 C127.571,94.982 135.177,95.948 140.222,96.226 C145.267,96.503 152,95.917 154.59,93.597 C157.179,91.278 158.849,83.301 160.356,83.247 C161.864,83.194 161.766,84.966 161.766,84.966 C161.766,84.966 164.008,83.995 164.333,83.056 C164.658,82.117 164.1,77.34 164.1,77.34 L164.1,77.34 L164.1,77.34 Z M104.148,90.684 C101.725,92.466 82.475,93.362 78.75,89.97 C75.234,86.768 76.618,79.006 76.618,79.006 C76.618,79.006 76.546,75.354 81.249,74.382 C85.953,73.41 90.066,73.224 94.838,73.487 C99.61,73.75 110.867,75.454 110.626,79.828 C110.319,85.419 106.571,88.903 104.148,90.684 L104.148,90.684 L104.148,90.684 Z M152.589,92.667 C149.75,94.562 146.038,94.905 139.085,94.522 C132.131,94.139 128.995,93.967 126.683,91.241 C124.372,88.515 122.118,82.002 124.82,77.638 C126.754,74.514 132.681,74.202 138.666,74.805 C144.65,75.408 153.202,76.563 154.862,78.706 C156.522,80.848 155.429,90.772 152.589,92.667 L152.589,92.667 L152.589,92.667 Z" id="Fill-7" fill="#1A1918" sketch:type="MSShapeGroup" mask="url(#mask-14)"></path>
                                    </g>
                                    <g id="Fill-8-Clipped">
                                        <mask id="mask-16" sketch:name="path-1" fill="white">
                                            <use xlink:href="#path-15"></use>
                                        </mask>
                                        <g id="path-1"></g>
                                        <path d="M84.427,79.338 C84.427,79.338 84.502,79.291 84.643,79.202 C84.779,79.119 84.976,79.005 85.227,78.869 C85.727,78.597 86.451,78.251 87.337,77.894 C88.222,77.535 89.277,77.179 90.431,76.9 C91.009,76.765 91.609,76.637 92.224,76.542 C92.839,76.447 93.466,76.363 94.096,76.324 L94.568,76.292 L94.839,76.275 L95.066,76.27 C95.372,76.268 95.651,76.247 96.009,76.279 C96.701,76.305 97.321,76.422 97.94,76.586 C99.168,76.919 100.208,77.555 100.975,78.162 C101.738,78.781 102.295,79.329 102.669,79.663 C103.043,79.999 103.234,80.127 103.234,80.127 C103.627,80.391 103.732,80.922 103.468,81.315 C103.205,81.708 102.673,81.813 102.28,81.549 C102.272,81.544 102.265,81.539 102.257,81.533 L102.237,81.519 C102.237,81.519 101.931,81.296 101.524,80.911 C101.111,80.532 100.608,79.988 99.946,79.472 C99.285,78.961 98.468,78.473 97.49,78.215 C97.009,78.09 96.465,77.995 95.962,77.982 C95.724,77.954 95.4,77.975 95.102,77.98 L94.876,77.986 L94.693,78.007 L94.259,78.054 C93.679,78.111 93.103,78.211 92.542,78.321 C91.979,78.429 91.433,78.568 90.908,78.713 C89.859,79.009 88.908,79.37 88.119,79.727 C87.33,80.085 86.708,80.448 86.29,80.708 C86.088,80.841 85.929,80.945 85.821,81.016 C85.725,81.086 85.675,81.123 85.675,81.123 L85.65,81.14 C85.164,81.495 84.482,81.387 84.128,80.9 C83.774,80.414 83.881,79.732 84.368,79.378 C84.386,79.365 84.408,79.35 84.427,79.338" id="Fill-8" fill="#1A1918" sketch:type="MSShapeGroup" mask="url(#mask-16)"></path>
                                    </g>
                                    <g id="Fill-9-Clipped">
                                        <mask id="mask-18" sketch:name="path-1" fill="white">
                                            <use xlink:href="#path-17"></use>
                                        </mask>
                                        <g id="path-1"></g>
                                        <path d="M127.519,80.71 C127.519,80.71 127.761,80.523 128.184,80.197 C128.38,80.033 128.698,79.84 129.023,79.616 C129.355,79.38 129.738,79.177 130.154,78.934 C130.567,78.689 131.047,78.482 131.539,78.235 C132.056,78.038 132.579,77.783 133.167,77.62 C133.738,77.418 134.357,77.285 134.987,77.154 C135.304,77.093 135.635,77.072 135.961,77.031 C136.137,77.018 136.261,76.986 136.48,76.987 L136.938,76.979 L137.852,76.962 C138.166,76.966 138.51,77.004 138.834,77.026 C139.496,77.044 140.124,77.225 140.739,77.342 C141.333,77.559 141.933,77.727 142.428,78.024 C142.956,78.274 143.392,78.578 143.795,78.859 C144.216,79.126 144.522,79.423 144.834,79.66 C145.143,79.901 145.382,80.123 145.587,80.303 C145.995,80.664 146.228,80.87 146.228,80.87 C146.597,81.197 146.631,81.761 146.304,82.13 C145.978,82.499 145.413,82.533 145.044,82.206 L145.04,82.202 L145.023,82.187 C145.023,82.187 144.8,81.987 144.411,81.638 C144.215,81.464 143.981,81.242 143.704,81.025 C143.425,80.812 143.125,80.518 142.771,80.295 C142.424,80.049 142.048,79.782 141.625,79.582 C141.22,79.328 140.741,79.206 140.267,79.018 C139.759,78.927 139.243,78.763 138.698,78.749 C138.424,78.73 138.165,78.691 137.872,78.684 L136.958,78.695 L136.501,78.7 C136.414,78.693 136.238,78.726 136.111,78.737 C135.835,78.774 135.559,78.787 135.286,78.839 C134.74,78.956 134.202,79.068 133.693,79.249 C133.174,79.39 132.7,79.625 132.236,79.799 C131.792,80.024 131.357,80.208 130.983,80.432 C130.61,80.651 130.25,80.841 129.976,81.039 C129.689,81.238 129.445,81.373 129.231,81.552 C128.808,81.878 128.566,82.064 128.566,82.064 C128.192,82.354 127.655,82.285 127.366,81.911 C127.077,81.536 127.145,80.999 127.519,80.71" id="Fill-9" fill="#1A1918" sketch:type="MSShapeGroup" mask="url(#mask-18)"></path>
                                    </g>
                                    <g id="Fill-10-Clipped">
                                        <mask id="mask-20" sketch:name="path-1" fill="white">
                                            <use xlink:href="#path-19"></use>
                                        </mask>
                                        <g id="path-1"></g>
                                        <path d="M97.134,79.629 C97.038,81.359 95.558,82.685 93.827,82.59 C92.096,82.495 90.771,81.014 90.866,79.284 C90.961,77.553 92.441,76.227 94.172,76.322 C95.903,76.417 97.229,77.898 97.134,79.629" id="Fill-10" fill="#1A1918" sketch:type="MSShapeGroup" mask="url(#mask-20)"></path>
                                    </g>
                                    <g id="Fill-11-Clipped">
                                        <mask id="mask-22" sketch:name="path-1" fill="white">
                                            <use xlink:href="#path-21"></use>
                                        </mask>
                                        <g id="path-1"></g>
                                        <path d="M139.953,80.471 C139.858,82.202 138.313,83.524 136.504,83.424 C134.694,83.325 133.305,81.841 133.4,80.11 C133.495,78.379 135.039,77.057 136.849,77.156 C138.658,77.256 140.048,78.74 139.953,80.471" id="Fill-11" fill="#1A1918" sketch:type="MSShapeGroup" mask="url(#mask-22)"></path>
                                    </g>
                                    <g id="Stroke-12-Clipped">
                                        <mask id="mask-24" sketch:name="path-1" fill="white">
                                            <use xlink:href="#path-23"></use>
                                        </mask>
                                        <g id="path-1"></g>
                                        <path d="M122.891,106.88 C122.891,106.88 124.023,108.514 125.433,107.877 C126.842,107.24 125.679,106.176 123.699,106.067 C121.72,105.958 118.463,109.637 115.722,109.486 C112.22,109.293 109.675,105.581 107.383,105.598 C105.091,105.614 106.407,106.687 107.297,107.165 C108.187,107.642 109.124,107.265 109.124,107.265" id="Stroke-12" stroke="#1A1918" stroke-width="1.77" sketch:type="MSShapeGroup" mask="url(#mask-24)"></path>
                                    </g>
                                    <g id="Stroke-13-Clipped">
                                        <mask id="mask-26" sketch:name="path-1" fill="white">
                                            <use xlink:href="#path-25"></use>
                                        </mask>
                                        <g id="path-1"></g>
                                        <path d="M83.647,171.504 C83.647,171.504 80.541,165.618 80.635,163.909 C80.73,162.199 82.154,162.277 82.154,162.277 C82.154,162.277 78.364,148.066 78.28,139.203" id="Stroke-13" stroke="#1A1918" sketch:type="MSShapeGroup" mask="url(#mask-26)"></path>
                                    </g>
                                    <g id="Stroke-14-Clipped">
                                        <mask id="mask-28" sketch:name="path-1" fill="white">
                                            <use xlink:href="#path-27"></use>
                                        </mask>
                                        <g id="path-1"></g>
                                        <path d="M125.674,73.827 C125.674,73.827 134.279,66.727 150.932,70.502 M107.242,73.71 C107.242,73.71 99.238,66.702 81.781,70.411" id="Stroke-14" stroke="#1A1918" stroke-width="4.5" sketch:type="MSShapeGroup" mask="url(#mask-28)"></path>
                                    </g>
                                </g>
                                <path d="M231.085,115.757 C231.085,179.347 179.535,230.897 115.945,230.897 C52.355,230.897 0.805,179.347 0.805,115.757 C0.805,52.166 52.355,0.616 115.945,0.616 C179.535,0.616 231.085,52.166 231.085,115.757 L231.085,115.757 L231.085,115.757 Z" id="Stroke-10027" stroke="#1A1918" stroke-width="4" sketch:type="MSShapeGroup"></path>
                            </g>
                        </g>
                    </g>
                </g>
            </g>
            <g id="noun_131675_cc" sketch:type="MSLayerGroup" transform="translate(90.918584, 24.284610) rotate(-30.000000) translate(-90.918584, -24.284610) translate(67.918584, 0.284610)">
                <g id="Group" transform="translate(-0.000000, 0.000000)" sketch:type="MSShapeGroup">
                    <g id="Shape">
                        <path d="M21.085,8.311 C20.83,8.192 20.531,8.192 20.276,8.314 C20.021,8.436 19.833,8.667 19.766,8.941 C15.864,24.816 7.108,32.086 7.021,32.158 C6.918,32.241 6.839,32.342 6.781,32.452 L41.554,32.452 C39.398,17.089 21.836,8.665 21.085,8.311 L21.085,8.311 Z" fill="#D04437"></path>
                        <path d="M43.075,34.633 L41.554,34.633 L6.781,34.633 L2.925,34.633 C1.362,34.633 0.091,35.904 0.091,37.467 L0.091,45.166 C0.09,46.729 1.362,48 2.925,48 L43.075,48 C44.638,48 45.909,46.729 45.909,45.166 L45.909,37.467 C45.909,35.904 44.639,34.633 43.075,34.633 L43.075,34.633 Z" fill="#D04437"></path>
                        <path d="M19.994,-1.42108547e-14 C17.306,-1.42108547e-14 15.118,2.267 15.118,5.053 C15.118,7.842 17.306,10.111 19.994,10.111 C22.677,10.111 24.859,7.842 24.859,5.053 C24.859,2.267 22.677,-1.42108547e-14 19.994,-1.42108547e-14 L19.994,-1.42108547e-14 Z" stroke="#D04437" stroke-width="3" fill="#FFFFFF"></path>
                    </g>
                </g>
            </g>
        </g>
    </g>
</svg>